%TF.GenerationSoftware,KiCad,Pcbnew,8.0.8*%
%TF.CreationDate,2025-02-13T02:54:43-08:00*%
%TF.ProjectId,final,66696e61-6c2e-46b6-9963-61645f706362,version1*%
%TF.SameCoordinates,Original*%
%TF.FileFunction,Soldermask,Top*%
%TF.FilePolarity,Negative*%
%FSLAX46Y46*%
G04 Gerber Fmt 4.6, Leading zero omitted, Abs format (unit mm)*
G04 Created by KiCad (PCBNEW 8.0.8) date 2025-02-13 02:54:43*
%MOMM*%
%LPD*%
G01*
G04 APERTURE LIST*
G04 Aperture macros list*
%AMRoundRect*
0 Rectangle with rounded corners*
0 $1 Rounding radius*
0 $2 $3 $4 $5 $6 $7 $8 $9 X,Y pos of 4 corners*
0 Add a 4 corners polygon primitive as box body*
4,1,4,$2,$3,$4,$5,$6,$7,$8,$9,$2,$3,0*
0 Add four circle primitives for the rounded corners*
1,1,$1+$1,$2,$3*
1,1,$1+$1,$4,$5*
1,1,$1+$1,$6,$7*
1,1,$1+$1,$8,$9*
0 Add four rect primitives between the rounded corners*
20,1,$1+$1,$2,$3,$4,$5,0*
20,1,$1+$1,$4,$5,$6,$7,0*
20,1,$1+$1,$6,$7,$8,$9,0*
20,1,$1+$1,$8,$9,$2,$3,0*%
G04 Aperture macros list end*
%ADD10RoundRect,0.075000X-0.350000X-0.075000X0.350000X-0.075000X0.350000X0.075000X-0.350000X0.075000X0*%
%ADD11RoundRect,0.075000X0.075000X-0.350000X0.075000X0.350000X-0.075000X0.350000X-0.075000X-0.350000X0*%
%ADD12O,1.600000X1.600000*%
%ADD13R,1.600000X1.600000*%
%ADD14C,2.000000*%
%ADD15RoundRect,0.200000X0.275000X-0.200000X0.275000X0.200000X-0.275000X0.200000X-0.275000X-0.200000X0*%
%ADD16RoundRect,0.200000X0.200000X0.275000X-0.200000X0.275000X-0.200000X-0.275000X0.200000X-0.275000X0*%
%ADD17C,1.700000*%
%ADD18R,0.850000X0.850000*%
%ADD19O,0.850000X0.850000*%
%ADD20R,1.800000X1.800000*%
%ADD21C,1.800000*%
%ADD22RoundRect,0.225000X-0.225000X-0.250000X0.225000X-0.250000X0.225000X0.250000X-0.225000X0.250000X0*%
%ADD23RoundRect,0.225000X0.225000X0.250000X-0.225000X0.250000X-0.225000X-0.250000X0.225000X-0.250000X0*%
%ADD24RoundRect,0.225000X0.250000X-0.225000X0.250000X0.225000X-0.250000X0.225000X-0.250000X-0.225000X0*%
%ADD25RoundRect,0.250000X0.625000X-0.350000X0.625000X0.350000X-0.625000X0.350000X-0.625000X-0.350000X0*%
%ADD26O,1.750000X1.200000*%
G04 APERTURE END LIST*
D10*
%TO.C,U1*%
X117300000Y-102300000D03*
X117300000Y-102800000D03*
X117300000Y-103300000D03*
X117300000Y-103800000D03*
X117300000Y-104300000D03*
X117300000Y-104800000D03*
D11*
X118000000Y-105500000D03*
X118500000Y-105500000D03*
X119000000Y-105500000D03*
X119500000Y-105500000D03*
X120000000Y-105500000D03*
X120500000Y-105500000D03*
D10*
X121200000Y-104800000D03*
X121200000Y-104300000D03*
X121200000Y-103800000D03*
X121200000Y-103300000D03*
X121200000Y-102800000D03*
X121200000Y-102300000D03*
D11*
X120500000Y-101600000D03*
X120000000Y-101600000D03*
X119500000Y-101600000D03*
X119000000Y-101600000D03*
X118500000Y-101600000D03*
X118000000Y-101600000D03*
%TD*%
D12*
%TO.C,SW2*%
X115935354Y-58620000D03*
D13*
X115935354Y-51000000D03*
%TD*%
D14*
%TO.C,SW1*%
X121750000Y-131750000D03*
X115250000Y-131750000D03*
X121750000Y-127250000D03*
X115250000Y-127250000D03*
%TD*%
D15*
%TO.C,R5*%
X118935354Y-40825000D03*
X118935354Y-39175000D03*
%TD*%
D16*
%TO.C,R4*%
X118325000Y-90000000D03*
X116675000Y-90000000D03*
%TD*%
%TO.C,R3*%
X119825000Y-86500000D03*
X118175000Y-86500000D03*
%TD*%
%TO.C,R2*%
X116500000Y-94000000D03*
X118150000Y-94000000D03*
%TD*%
%TO.C,R1*%
X116500000Y-96000000D03*
X118150000Y-96000000D03*
%TD*%
D17*
%TO.C,Q1*%
X117500000Y-120000000D03*
X117500000Y-117500000D03*
X117500000Y-115000000D03*
%TD*%
D18*
%TO.C,M1*%
X119500000Y-109000000D03*
D19*
X119500000Y-110000000D03*
%TD*%
D18*
%TO.C,J8*%
X116000000Y-45000000D03*
%TD*%
%TO.C,J7*%
X116000000Y-43000000D03*
%TD*%
%TO.C,J6*%
X119935354Y-51500000D03*
%TD*%
%TO.C,J5*%
X119935354Y-49500000D03*
%TD*%
%TO.C,J4*%
X119935354Y-47500000D03*
%TD*%
%TO.C,J3*%
X119935354Y-45500000D03*
%TD*%
%TO.C,J2*%
X119935354Y-55500000D03*
%TD*%
%TO.C,J1*%
X119935354Y-53500000D03*
%TD*%
D19*
%TO.C,FSR1*%
X121935354Y-39500000D03*
D18*
X121935354Y-40500000D03*
%TD*%
D20*
%TO.C,D1*%
X117435354Y-36000000D03*
D21*
X119975354Y-36000000D03*
%TD*%
D22*
%TO.C,C4*%
X118225000Y-80000000D03*
X119775000Y-80000000D03*
%TD*%
%TO.C,C3*%
X119160354Y-61500000D03*
X120710354Y-61500000D03*
%TD*%
D23*
%TO.C,C2*%
X120775000Y-83500000D03*
X119225000Y-83500000D03*
%TD*%
D24*
%TO.C,C1*%
X121935354Y-44050000D03*
X121935354Y-42500000D03*
%TD*%
D25*
%TO.C,BT1*%
X119500000Y-74000000D03*
D26*
X119500000Y-72000000D03*
%TD*%
M02*
