M48
; DRILL file {KiCad 9.0.0} date 2025-02-26T15:53:01-0800
; FORMAT={-:-/ absolute / metric / decimal}
; #@! TF.CreationDate,2025-02-26T15:53:01-08:00
; #@! TF.GenerationSoftware,Kicad,Pcbnew,9.0.0
; #@! TF.FileFunction,Plated,1,2,PTH
FMAT,2
METRIC
; #@! TA.AperFunction,Plated,PTH,ViaDrill
T1C0.300
; #@! TA.AperFunction,Plated,PTH,ComponentDrill
T2C0.500
; #@! TA.AperFunction,Plated,PTH,ComponentDrill
T3C0.750
; #@! TA.AperFunction,Plated,PTH,ComponentDrill
T4C0.800
; #@! TA.AperFunction,Plated,PTH,ComponentDrill
T5C0.900
; #@! TA.AperFunction,Plated,PTH,ComponentDrill
T6C1.000
; #@! TA.AperFunction,Plated,PTH,ComponentDrill
T7C1.100
%
G90
G05
T1
X115.5Y-107.0
X116.0Y-113.5
X117.0Y-83.5
X118.1Y-112.0
X118.5Y-44.0
X118.5Y-68.0
X118.5Y-100.0
X119.1Y-48.5
X120.0Y-90.0
X120.0Y-99.5
X120.5Y-68.0
X120.5Y-107.0
X121.4Y-100.0
X121.5Y-109.0
X122.0Y-41.5
T2
X116.0Y-43.0
X116.0Y-45.0
X119.5Y-109.0
X119.5Y-110.0
X119.935Y-45.5
X119.935Y-47.5
X119.935Y-49.5
X119.935Y-51.5
X119.935Y-53.5
X119.935Y-55.5
X121.935Y-39.5
X121.935Y-40.5
T3
X119.5Y-72.0
X119.5Y-74.0
T4
X115.935Y-51.0
X115.935Y-58.62
T5
X117.435Y-36.0
X119.975Y-36.0
T6
X117.5Y-115.0
X117.5Y-117.5
X117.5Y-120.0
T7
X115.25Y-127.25
X115.25Y-131.75
X121.75Y-127.25
X121.75Y-131.75
M30
