M48
; DRILL file {KiCad 8.0.8} date 2025-02-13T02:54:47-0800
; FORMAT={-:-/ absolute / inch / decimal}
; #@! TF.CreationDate,2025-02-13T02:54:47-08:00
; #@! TF.GenerationSoftware,Kicad,Pcbnew,8.0.8
; #@! TF.FileFunction,Plated,1,2,PTH
FMAT,2
INCH
; #@! TA.AperFunction,Plated,PTH,ViaDrill
T1C0.0118
; #@! TA.AperFunction,Plated,PTH,ComponentDrill
T2C0.0197
; #@! TA.AperFunction,Plated,PTH,ComponentDrill
T3C0.0295
; #@! TA.AperFunction,Plated,PTH,ComponentDrill
T4C0.0315
; #@! TA.AperFunction,Plated,PTH,ComponentDrill
T5C0.0354
; #@! TA.AperFunction,Plated,PTH,ComponentDrill
T6C0.0394
; #@! TA.AperFunction,Plated,PTH,ComponentDrill
T7C0.0433
%
G90
G05
T1
X4.5472Y-4.2126
X4.5669Y-4.4685
X4.6063Y-3.2874
X4.6496Y-4.4094
X4.6654Y-1.7323
X4.6654Y-2.6772
X4.6654Y-3.937
X4.689Y-1.9094
X4.7244Y-3.5433
X4.7244Y-3.9173
X4.7441Y-2.6772
X4.7441Y-4.2126
X4.7795Y-3.937
X4.7835Y-4.2913
X4.8031Y-1.6339
T2
X4.5669Y-1.6929
X4.5669Y-1.7717
X4.7047Y-4.2913
X4.7047Y-4.3307
X4.7219Y-1.7913
X4.7219Y-1.8701
X4.7219Y-1.9488
X4.7219Y-2.0276
X4.7219Y-2.1063
X4.7219Y-2.185
X4.8006Y-1.5551
X4.8006Y-1.5945
T3
X4.7047Y-2.8346
X4.7047Y-2.9134
T4
X4.5644Y-2.0079
X4.5644Y-2.3079
T5
X4.6234Y-1.4173
X4.7234Y-1.4173
T6
X4.626Y-4.5276
X4.626Y-4.626
X4.626Y-4.7244
T7
X4.5374Y-5.0098
X4.5374Y-5.187
X4.7933Y-5.0098
X4.7933Y-5.187
M30
