%TF.GenerationSoftware,KiCad,Pcbnew,8.0.8*%
%TF.CreationDate,2025-02-13T02:54:43-08:00*%
%TF.ProjectId,final,66696e61-6c2e-46b6-9963-61645f706362,version1*%
%TF.SameCoordinates,Original*%
%TF.FileFunction,Legend,Top*%
%TF.FilePolarity,Positive*%
%FSLAX46Y46*%
G04 Gerber Fmt 4.6, Leading zero omitted, Abs format (unit mm)*
G04 Created by KiCad (PCBNEW 8.0.8) date 2025-02-13 02:54:43*
%MOMM*%
%LPD*%
G01*
G04 APERTURE LIST*
%ADD10C,0.150000*%
%ADD11C,0.120000*%
G04 APERTURE END LIST*
D10*
X118488095Y-99629819D02*
X118488095Y-100439342D01*
X118488095Y-100439342D02*
X118535714Y-100534580D01*
X118535714Y-100534580D02*
X118583333Y-100582200D01*
X118583333Y-100582200D02*
X118678571Y-100629819D01*
X118678571Y-100629819D02*
X118869047Y-100629819D01*
X118869047Y-100629819D02*
X118964285Y-100582200D01*
X118964285Y-100582200D02*
X119011904Y-100534580D01*
X119011904Y-100534580D02*
X119059523Y-100439342D01*
X119059523Y-100439342D02*
X119059523Y-99629819D01*
X120059523Y-100629819D02*
X119488095Y-100629819D01*
X119773809Y-100629819D02*
X119773809Y-99629819D01*
X119773809Y-99629819D02*
X119678571Y-99772676D01*
X119678571Y-99772676D02*
X119583333Y-99867914D01*
X119583333Y-99867914D02*
X119488095Y-99915533D01*
X119452554Y-56143332D02*
X119500173Y-56000475D01*
X119500173Y-56000475D02*
X119500173Y-55762380D01*
X119500173Y-55762380D02*
X119452554Y-55667142D01*
X119452554Y-55667142D02*
X119404934Y-55619523D01*
X119404934Y-55619523D02*
X119309696Y-55571904D01*
X119309696Y-55571904D02*
X119214458Y-55571904D01*
X119214458Y-55571904D02*
X119119220Y-55619523D01*
X119119220Y-55619523D02*
X119071601Y-55667142D01*
X119071601Y-55667142D02*
X119023982Y-55762380D01*
X119023982Y-55762380D02*
X118976363Y-55952856D01*
X118976363Y-55952856D02*
X118928744Y-56048094D01*
X118928744Y-56048094D02*
X118881125Y-56095713D01*
X118881125Y-56095713D02*
X118785887Y-56143332D01*
X118785887Y-56143332D02*
X118690649Y-56143332D01*
X118690649Y-56143332D02*
X118595411Y-56095713D01*
X118595411Y-56095713D02*
X118547792Y-56048094D01*
X118547792Y-56048094D02*
X118500173Y-55952856D01*
X118500173Y-55952856D02*
X118500173Y-55714761D01*
X118500173Y-55714761D02*
X118547792Y-55571904D01*
X118500173Y-55238570D02*
X119500173Y-55000475D01*
X119500173Y-55000475D02*
X118785887Y-54809999D01*
X118785887Y-54809999D02*
X119500173Y-54619523D01*
X119500173Y-54619523D02*
X118500173Y-54381428D01*
X118595411Y-54048094D02*
X118547792Y-54000475D01*
X118547792Y-54000475D02*
X118500173Y-53905237D01*
X118500173Y-53905237D02*
X118500173Y-53667142D01*
X118500173Y-53667142D02*
X118547792Y-53571904D01*
X118547792Y-53571904D02*
X118595411Y-53524285D01*
X118595411Y-53524285D02*
X118690649Y-53476666D01*
X118690649Y-53476666D02*
X118785887Y-53476666D01*
X118785887Y-53476666D02*
X118928744Y-53524285D01*
X118928744Y-53524285D02*
X119500173Y-54095713D01*
X119500173Y-54095713D02*
X119500173Y-53476666D01*
X117166667Y-134157200D02*
X117309524Y-134204819D01*
X117309524Y-134204819D02*
X117547619Y-134204819D01*
X117547619Y-134204819D02*
X117642857Y-134157200D01*
X117642857Y-134157200D02*
X117690476Y-134109580D01*
X117690476Y-134109580D02*
X117738095Y-134014342D01*
X117738095Y-134014342D02*
X117738095Y-133919104D01*
X117738095Y-133919104D02*
X117690476Y-133823866D01*
X117690476Y-133823866D02*
X117642857Y-133776247D01*
X117642857Y-133776247D02*
X117547619Y-133728628D01*
X117547619Y-133728628D02*
X117357143Y-133681009D01*
X117357143Y-133681009D02*
X117261905Y-133633390D01*
X117261905Y-133633390D02*
X117214286Y-133585771D01*
X117214286Y-133585771D02*
X117166667Y-133490533D01*
X117166667Y-133490533D02*
X117166667Y-133395295D01*
X117166667Y-133395295D02*
X117214286Y-133300057D01*
X117214286Y-133300057D02*
X117261905Y-133252438D01*
X117261905Y-133252438D02*
X117357143Y-133204819D01*
X117357143Y-133204819D02*
X117595238Y-133204819D01*
X117595238Y-133204819D02*
X117738095Y-133252438D01*
X118071429Y-133204819D02*
X118309524Y-134204819D01*
X118309524Y-134204819D02*
X118500000Y-133490533D01*
X118500000Y-133490533D02*
X118690476Y-134204819D01*
X118690476Y-134204819D02*
X118928572Y-133204819D01*
X119833333Y-134204819D02*
X119261905Y-134204819D01*
X119547619Y-134204819D02*
X119547619Y-133204819D01*
X119547619Y-133204819D02*
X119452381Y-133347676D01*
X119452381Y-133347676D02*
X119357143Y-133442914D01*
X119357143Y-133442914D02*
X119261905Y-133490533D01*
X117960173Y-40166666D02*
X117483982Y-40499999D01*
X117960173Y-40738094D02*
X116960173Y-40738094D01*
X116960173Y-40738094D02*
X116960173Y-40357142D01*
X116960173Y-40357142D02*
X117007792Y-40261904D01*
X117007792Y-40261904D02*
X117055411Y-40214285D01*
X117055411Y-40214285D02*
X117150649Y-40166666D01*
X117150649Y-40166666D02*
X117293506Y-40166666D01*
X117293506Y-40166666D02*
X117388744Y-40214285D01*
X117388744Y-40214285D02*
X117436363Y-40261904D01*
X117436363Y-40261904D02*
X117483982Y-40357142D01*
X117483982Y-40357142D02*
X117483982Y-40738094D01*
X116960173Y-39261904D02*
X116960173Y-39738094D01*
X116960173Y-39738094D02*
X117436363Y-39785713D01*
X117436363Y-39785713D02*
X117388744Y-39738094D01*
X117388744Y-39738094D02*
X117341125Y-39642856D01*
X117341125Y-39642856D02*
X117341125Y-39404761D01*
X117341125Y-39404761D02*
X117388744Y-39309523D01*
X117388744Y-39309523D02*
X117436363Y-39261904D01*
X117436363Y-39261904D02*
X117531601Y-39214285D01*
X117531601Y-39214285D02*
X117769696Y-39214285D01*
X117769696Y-39214285D02*
X117864934Y-39261904D01*
X117864934Y-39261904D02*
X117912554Y-39309523D01*
X117912554Y-39309523D02*
X117960173Y-39404761D01*
X117960173Y-39404761D02*
X117960173Y-39642856D01*
X117960173Y-39642856D02*
X117912554Y-39738094D01*
X117912554Y-39738094D02*
X117864934Y-39785713D01*
X117333333Y-91884819D02*
X117000000Y-91408628D01*
X116761905Y-91884819D02*
X116761905Y-90884819D01*
X116761905Y-90884819D02*
X117142857Y-90884819D01*
X117142857Y-90884819D02*
X117238095Y-90932438D01*
X117238095Y-90932438D02*
X117285714Y-90980057D01*
X117285714Y-90980057D02*
X117333333Y-91075295D01*
X117333333Y-91075295D02*
X117333333Y-91218152D01*
X117333333Y-91218152D02*
X117285714Y-91313390D01*
X117285714Y-91313390D02*
X117238095Y-91361009D01*
X117238095Y-91361009D02*
X117142857Y-91408628D01*
X117142857Y-91408628D02*
X116761905Y-91408628D01*
X118190476Y-91218152D02*
X118190476Y-91884819D01*
X117952381Y-90837200D02*
X117714286Y-91551485D01*
X117714286Y-91551485D02*
X118333333Y-91551485D01*
X118833333Y-88384819D02*
X118500000Y-87908628D01*
X118261905Y-88384819D02*
X118261905Y-87384819D01*
X118261905Y-87384819D02*
X118642857Y-87384819D01*
X118642857Y-87384819D02*
X118738095Y-87432438D01*
X118738095Y-87432438D02*
X118785714Y-87480057D01*
X118785714Y-87480057D02*
X118833333Y-87575295D01*
X118833333Y-87575295D02*
X118833333Y-87718152D01*
X118833333Y-87718152D02*
X118785714Y-87813390D01*
X118785714Y-87813390D02*
X118738095Y-87861009D01*
X118738095Y-87861009D02*
X118642857Y-87908628D01*
X118642857Y-87908628D02*
X118261905Y-87908628D01*
X119166667Y-87384819D02*
X119785714Y-87384819D01*
X119785714Y-87384819D02*
X119452381Y-87765771D01*
X119452381Y-87765771D02*
X119595238Y-87765771D01*
X119595238Y-87765771D02*
X119690476Y-87813390D01*
X119690476Y-87813390D02*
X119738095Y-87861009D01*
X119738095Y-87861009D02*
X119785714Y-87956247D01*
X119785714Y-87956247D02*
X119785714Y-88194342D01*
X119785714Y-88194342D02*
X119738095Y-88289580D01*
X119738095Y-88289580D02*
X119690476Y-88337200D01*
X119690476Y-88337200D02*
X119595238Y-88384819D01*
X119595238Y-88384819D02*
X119309524Y-88384819D01*
X119309524Y-88384819D02*
X119214286Y-88337200D01*
X119214286Y-88337200D02*
X119166667Y-88289580D01*
X117158333Y-95884819D02*
X116825000Y-95408628D01*
X116586905Y-95884819D02*
X116586905Y-94884819D01*
X116586905Y-94884819D02*
X116967857Y-94884819D01*
X116967857Y-94884819D02*
X117063095Y-94932438D01*
X117063095Y-94932438D02*
X117110714Y-94980057D01*
X117110714Y-94980057D02*
X117158333Y-95075295D01*
X117158333Y-95075295D02*
X117158333Y-95218152D01*
X117158333Y-95218152D02*
X117110714Y-95313390D01*
X117110714Y-95313390D02*
X117063095Y-95361009D01*
X117063095Y-95361009D02*
X116967857Y-95408628D01*
X116967857Y-95408628D02*
X116586905Y-95408628D01*
X117539286Y-94980057D02*
X117586905Y-94932438D01*
X117586905Y-94932438D02*
X117682143Y-94884819D01*
X117682143Y-94884819D02*
X117920238Y-94884819D01*
X117920238Y-94884819D02*
X118015476Y-94932438D01*
X118015476Y-94932438D02*
X118063095Y-94980057D01*
X118063095Y-94980057D02*
X118110714Y-95075295D01*
X118110714Y-95075295D02*
X118110714Y-95170533D01*
X118110714Y-95170533D02*
X118063095Y-95313390D01*
X118063095Y-95313390D02*
X117491667Y-95884819D01*
X117491667Y-95884819D02*
X118110714Y-95884819D01*
X117158333Y-97884819D02*
X116825000Y-97408628D01*
X116586905Y-97884819D02*
X116586905Y-96884819D01*
X116586905Y-96884819D02*
X116967857Y-96884819D01*
X116967857Y-96884819D02*
X117063095Y-96932438D01*
X117063095Y-96932438D02*
X117110714Y-96980057D01*
X117110714Y-96980057D02*
X117158333Y-97075295D01*
X117158333Y-97075295D02*
X117158333Y-97218152D01*
X117158333Y-97218152D02*
X117110714Y-97313390D01*
X117110714Y-97313390D02*
X117063095Y-97361009D01*
X117063095Y-97361009D02*
X116967857Y-97408628D01*
X116967857Y-97408628D02*
X116586905Y-97408628D01*
X118110714Y-97884819D02*
X117539286Y-97884819D01*
X117825000Y-97884819D02*
X117825000Y-96884819D01*
X117825000Y-96884819D02*
X117729762Y-97027676D01*
X117729762Y-97027676D02*
X117634524Y-97122914D01*
X117634524Y-97122914D02*
X117539286Y-97170533D01*
X115350057Y-117595238D02*
X115302438Y-117690476D01*
X115302438Y-117690476D02*
X115207200Y-117785714D01*
X115207200Y-117785714D02*
X115064342Y-117928571D01*
X115064342Y-117928571D02*
X115016723Y-118023809D01*
X115016723Y-118023809D02*
X115016723Y-118119047D01*
X115254819Y-118071428D02*
X115207200Y-118166666D01*
X115207200Y-118166666D02*
X115111961Y-118261904D01*
X115111961Y-118261904D02*
X114921485Y-118309523D01*
X114921485Y-118309523D02*
X114588152Y-118309523D01*
X114588152Y-118309523D02*
X114397676Y-118261904D01*
X114397676Y-118261904D02*
X114302438Y-118166666D01*
X114302438Y-118166666D02*
X114254819Y-118071428D01*
X114254819Y-118071428D02*
X114254819Y-117880952D01*
X114254819Y-117880952D02*
X114302438Y-117785714D01*
X114302438Y-117785714D02*
X114397676Y-117690476D01*
X114397676Y-117690476D02*
X114588152Y-117642857D01*
X114588152Y-117642857D02*
X114921485Y-117642857D01*
X114921485Y-117642857D02*
X115111961Y-117690476D01*
X115111961Y-117690476D02*
X115207200Y-117785714D01*
X115207200Y-117785714D02*
X115254819Y-117880952D01*
X115254819Y-117880952D02*
X115254819Y-118071428D01*
X115254819Y-116690476D02*
X115254819Y-117261904D01*
X115254819Y-116976190D02*
X114254819Y-116976190D01*
X114254819Y-116976190D02*
X114397676Y-117071428D01*
X114397676Y-117071428D02*
X114492914Y-117166666D01*
X114492914Y-117166666D02*
X114540533Y-117261904D01*
X118690476Y-107894819D02*
X118690476Y-106894819D01*
X118690476Y-106894819D02*
X119023809Y-107609104D01*
X119023809Y-107609104D02*
X119357142Y-106894819D01*
X119357142Y-106894819D02*
X119357142Y-107894819D01*
X120357142Y-107894819D02*
X119785714Y-107894819D01*
X120071428Y-107894819D02*
X120071428Y-106894819D01*
X120071428Y-106894819D02*
X119976190Y-107037676D01*
X119976190Y-107037676D02*
X119880952Y-107132914D01*
X119880952Y-107132914D02*
X119785714Y-107180533D01*
X115666666Y-42894819D02*
X115666666Y-43609104D01*
X115666666Y-43609104D02*
X115619047Y-43751961D01*
X115619047Y-43751961D02*
X115523809Y-43847200D01*
X115523809Y-43847200D02*
X115380952Y-43894819D01*
X115380952Y-43894819D02*
X115285714Y-43894819D01*
X116285714Y-43323390D02*
X116190476Y-43275771D01*
X116190476Y-43275771D02*
X116142857Y-43228152D01*
X116142857Y-43228152D02*
X116095238Y-43132914D01*
X116095238Y-43132914D02*
X116095238Y-43085295D01*
X116095238Y-43085295D02*
X116142857Y-42990057D01*
X116142857Y-42990057D02*
X116190476Y-42942438D01*
X116190476Y-42942438D02*
X116285714Y-42894819D01*
X116285714Y-42894819D02*
X116476190Y-42894819D01*
X116476190Y-42894819D02*
X116571428Y-42942438D01*
X116571428Y-42942438D02*
X116619047Y-42990057D01*
X116619047Y-42990057D02*
X116666666Y-43085295D01*
X116666666Y-43085295D02*
X116666666Y-43132914D01*
X116666666Y-43132914D02*
X116619047Y-43228152D01*
X116619047Y-43228152D02*
X116571428Y-43275771D01*
X116571428Y-43275771D02*
X116476190Y-43323390D01*
X116476190Y-43323390D02*
X116285714Y-43323390D01*
X116285714Y-43323390D02*
X116190476Y-43371009D01*
X116190476Y-43371009D02*
X116142857Y-43418628D01*
X116142857Y-43418628D02*
X116095238Y-43513866D01*
X116095238Y-43513866D02*
X116095238Y-43704342D01*
X116095238Y-43704342D02*
X116142857Y-43799580D01*
X116142857Y-43799580D02*
X116190476Y-43847200D01*
X116190476Y-43847200D02*
X116285714Y-43894819D01*
X116285714Y-43894819D02*
X116476190Y-43894819D01*
X116476190Y-43894819D02*
X116571428Y-43847200D01*
X116571428Y-43847200D02*
X116619047Y-43799580D01*
X116619047Y-43799580D02*
X116666666Y-43704342D01*
X116666666Y-43704342D02*
X116666666Y-43513866D01*
X116666666Y-43513866D02*
X116619047Y-43418628D01*
X116619047Y-43418628D02*
X116571428Y-43371009D01*
X116571428Y-43371009D02*
X116476190Y-43323390D01*
X115666666Y-40894819D02*
X115666666Y-41609104D01*
X115666666Y-41609104D02*
X115619047Y-41751961D01*
X115619047Y-41751961D02*
X115523809Y-41847200D01*
X115523809Y-41847200D02*
X115380952Y-41894819D01*
X115380952Y-41894819D02*
X115285714Y-41894819D01*
X116047619Y-40894819D02*
X116714285Y-40894819D01*
X116714285Y-40894819D02*
X116285714Y-41894819D01*
X119602020Y-49394819D02*
X119602020Y-50109104D01*
X119602020Y-50109104D02*
X119554401Y-50251961D01*
X119554401Y-50251961D02*
X119459163Y-50347200D01*
X119459163Y-50347200D02*
X119316306Y-50394819D01*
X119316306Y-50394819D02*
X119221068Y-50394819D01*
X120506782Y-49394819D02*
X120316306Y-49394819D01*
X120316306Y-49394819D02*
X120221068Y-49442438D01*
X120221068Y-49442438D02*
X120173449Y-49490057D01*
X120173449Y-49490057D02*
X120078211Y-49632914D01*
X120078211Y-49632914D02*
X120030592Y-49823390D01*
X120030592Y-49823390D02*
X120030592Y-50204342D01*
X120030592Y-50204342D02*
X120078211Y-50299580D01*
X120078211Y-50299580D02*
X120125830Y-50347200D01*
X120125830Y-50347200D02*
X120221068Y-50394819D01*
X120221068Y-50394819D02*
X120411544Y-50394819D01*
X120411544Y-50394819D02*
X120506782Y-50347200D01*
X120506782Y-50347200D02*
X120554401Y-50299580D01*
X120554401Y-50299580D02*
X120602020Y-50204342D01*
X120602020Y-50204342D02*
X120602020Y-49966247D01*
X120602020Y-49966247D02*
X120554401Y-49871009D01*
X120554401Y-49871009D02*
X120506782Y-49823390D01*
X120506782Y-49823390D02*
X120411544Y-49775771D01*
X120411544Y-49775771D02*
X120221068Y-49775771D01*
X120221068Y-49775771D02*
X120125830Y-49823390D01*
X120125830Y-49823390D02*
X120078211Y-49871009D01*
X120078211Y-49871009D02*
X120030592Y-49966247D01*
X119602020Y-47394819D02*
X119602020Y-48109104D01*
X119602020Y-48109104D02*
X119554401Y-48251961D01*
X119554401Y-48251961D02*
X119459163Y-48347200D01*
X119459163Y-48347200D02*
X119316306Y-48394819D01*
X119316306Y-48394819D02*
X119221068Y-48394819D01*
X120554401Y-47394819D02*
X120078211Y-47394819D01*
X120078211Y-47394819D02*
X120030592Y-47871009D01*
X120030592Y-47871009D02*
X120078211Y-47823390D01*
X120078211Y-47823390D02*
X120173449Y-47775771D01*
X120173449Y-47775771D02*
X120411544Y-47775771D01*
X120411544Y-47775771D02*
X120506782Y-47823390D01*
X120506782Y-47823390D02*
X120554401Y-47871009D01*
X120554401Y-47871009D02*
X120602020Y-47966247D01*
X120602020Y-47966247D02*
X120602020Y-48204342D01*
X120602020Y-48204342D02*
X120554401Y-48299580D01*
X120554401Y-48299580D02*
X120506782Y-48347200D01*
X120506782Y-48347200D02*
X120411544Y-48394819D01*
X120411544Y-48394819D02*
X120173449Y-48394819D01*
X120173449Y-48394819D02*
X120078211Y-48347200D01*
X120078211Y-48347200D02*
X120030592Y-48299580D01*
X119602020Y-45394819D02*
X119602020Y-46109104D01*
X119602020Y-46109104D02*
X119554401Y-46251961D01*
X119554401Y-46251961D02*
X119459163Y-46347200D01*
X119459163Y-46347200D02*
X119316306Y-46394819D01*
X119316306Y-46394819D02*
X119221068Y-46394819D01*
X120506782Y-45728152D02*
X120506782Y-46394819D01*
X120268687Y-45347200D02*
X120030592Y-46061485D01*
X120030592Y-46061485D02*
X120649639Y-46061485D01*
X119602020Y-43394819D02*
X119602020Y-44109104D01*
X119602020Y-44109104D02*
X119554401Y-44251961D01*
X119554401Y-44251961D02*
X119459163Y-44347200D01*
X119459163Y-44347200D02*
X119316306Y-44394819D01*
X119316306Y-44394819D02*
X119221068Y-44394819D01*
X119982973Y-43394819D02*
X120602020Y-43394819D01*
X120602020Y-43394819D02*
X120268687Y-43775771D01*
X120268687Y-43775771D02*
X120411544Y-43775771D01*
X120411544Y-43775771D02*
X120506782Y-43823390D01*
X120506782Y-43823390D02*
X120554401Y-43871009D01*
X120554401Y-43871009D02*
X120602020Y-43966247D01*
X120602020Y-43966247D02*
X120602020Y-44204342D01*
X120602020Y-44204342D02*
X120554401Y-44299580D01*
X120554401Y-44299580D02*
X120506782Y-44347200D01*
X120506782Y-44347200D02*
X120411544Y-44394819D01*
X120411544Y-44394819D02*
X120125830Y-44394819D01*
X120125830Y-44394819D02*
X120030592Y-44347200D01*
X120030592Y-44347200D02*
X119982973Y-44299580D01*
X119602020Y-53394819D02*
X119602020Y-54109104D01*
X119602020Y-54109104D02*
X119554401Y-54251961D01*
X119554401Y-54251961D02*
X119459163Y-54347200D01*
X119459163Y-54347200D02*
X119316306Y-54394819D01*
X119316306Y-54394819D02*
X119221068Y-54394819D01*
X120030592Y-53490057D02*
X120078211Y-53442438D01*
X120078211Y-53442438D02*
X120173449Y-53394819D01*
X120173449Y-53394819D02*
X120411544Y-53394819D01*
X120411544Y-53394819D02*
X120506782Y-53442438D01*
X120506782Y-53442438D02*
X120554401Y-53490057D01*
X120554401Y-53490057D02*
X120602020Y-53585295D01*
X120602020Y-53585295D02*
X120602020Y-53680533D01*
X120602020Y-53680533D02*
X120554401Y-53823390D01*
X120554401Y-53823390D02*
X119982973Y-54394819D01*
X119982973Y-54394819D02*
X120602020Y-54394819D01*
X119602020Y-51394819D02*
X119602020Y-52109104D01*
X119602020Y-52109104D02*
X119554401Y-52251961D01*
X119554401Y-52251961D02*
X119459163Y-52347200D01*
X119459163Y-52347200D02*
X119316306Y-52394819D01*
X119316306Y-52394819D02*
X119221068Y-52394819D01*
X120602020Y-52394819D02*
X120030592Y-52394819D01*
X120316306Y-52394819D02*
X120316306Y-51394819D01*
X120316306Y-51394819D02*
X120221068Y-51537676D01*
X120221068Y-51537676D02*
X120125830Y-51632914D01*
X120125830Y-51632914D02*
X120030592Y-51680533D01*
X120625830Y-41991009D02*
X120292497Y-41991009D01*
X120292497Y-42514819D02*
X120292497Y-41514819D01*
X120292497Y-41514819D02*
X120768687Y-41514819D01*
X121102021Y-42467200D02*
X121244878Y-42514819D01*
X121244878Y-42514819D02*
X121482973Y-42514819D01*
X121482973Y-42514819D02*
X121578211Y-42467200D01*
X121578211Y-42467200D02*
X121625830Y-42419580D01*
X121625830Y-42419580D02*
X121673449Y-42324342D01*
X121673449Y-42324342D02*
X121673449Y-42229104D01*
X121673449Y-42229104D02*
X121625830Y-42133866D01*
X121625830Y-42133866D02*
X121578211Y-42086247D01*
X121578211Y-42086247D02*
X121482973Y-42038628D01*
X121482973Y-42038628D02*
X121292497Y-41991009D01*
X121292497Y-41991009D02*
X121197259Y-41943390D01*
X121197259Y-41943390D02*
X121149640Y-41895771D01*
X121149640Y-41895771D02*
X121102021Y-41800533D01*
X121102021Y-41800533D02*
X121102021Y-41705295D01*
X121102021Y-41705295D02*
X121149640Y-41610057D01*
X121149640Y-41610057D02*
X121197259Y-41562438D01*
X121197259Y-41562438D02*
X121292497Y-41514819D01*
X121292497Y-41514819D02*
X121530592Y-41514819D01*
X121530592Y-41514819D02*
X121673449Y-41562438D01*
X122673449Y-42514819D02*
X122340116Y-42038628D01*
X122102021Y-42514819D02*
X122102021Y-41514819D01*
X122102021Y-41514819D02*
X122482973Y-41514819D01*
X122482973Y-41514819D02*
X122578211Y-41562438D01*
X122578211Y-41562438D02*
X122625830Y-41610057D01*
X122625830Y-41610057D02*
X122673449Y-41705295D01*
X122673449Y-41705295D02*
X122673449Y-41848152D01*
X122673449Y-41848152D02*
X122625830Y-41943390D01*
X122625830Y-41943390D02*
X122578211Y-41991009D01*
X122578211Y-41991009D02*
X122482973Y-42038628D01*
X122482973Y-42038628D02*
X122102021Y-42038628D01*
X123625830Y-42514819D02*
X123054402Y-42514819D01*
X123340116Y-42514819D02*
X123340116Y-41514819D01*
X123340116Y-41514819D02*
X123244878Y-41657676D01*
X123244878Y-41657676D02*
X123149640Y-41752914D01*
X123149640Y-41752914D02*
X123054402Y-41800533D01*
X117967259Y-33494819D02*
X117967259Y-32494819D01*
X117967259Y-32494819D02*
X118205354Y-32494819D01*
X118205354Y-32494819D02*
X118348211Y-32542438D01*
X118348211Y-32542438D02*
X118443449Y-32637676D01*
X118443449Y-32637676D02*
X118491068Y-32732914D01*
X118491068Y-32732914D02*
X118538687Y-32923390D01*
X118538687Y-32923390D02*
X118538687Y-33066247D01*
X118538687Y-33066247D02*
X118491068Y-33256723D01*
X118491068Y-33256723D02*
X118443449Y-33351961D01*
X118443449Y-33351961D02*
X118348211Y-33447200D01*
X118348211Y-33447200D02*
X118205354Y-33494819D01*
X118205354Y-33494819D02*
X117967259Y-33494819D01*
X119491068Y-33494819D02*
X118919640Y-33494819D01*
X119205354Y-33494819D02*
X119205354Y-32494819D01*
X119205354Y-32494819D02*
X119110116Y-32637676D01*
X119110116Y-32637676D02*
X119014878Y-32732914D01*
X119014878Y-32732914D02*
X118919640Y-32780533D01*
X118833333Y-78929580D02*
X118785714Y-78977200D01*
X118785714Y-78977200D02*
X118642857Y-79024819D01*
X118642857Y-79024819D02*
X118547619Y-79024819D01*
X118547619Y-79024819D02*
X118404762Y-78977200D01*
X118404762Y-78977200D02*
X118309524Y-78881961D01*
X118309524Y-78881961D02*
X118261905Y-78786723D01*
X118261905Y-78786723D02*
X118214286Y-78596247D01*
X118214286Y-78596247D02*
X118214286Y-78453390D01*
X118214286Y-78453390D02*
X118261905Y-78262914D01*
X118261905Y-78262914D02*
X118309524Y-78167676D01*
X118309524Y-78167676D02*
X118404762Y-78072438D01*
X118404762Y-78072438D02*
X118547619Y-78024819D01*
X118547619Y-78024819D02*
X118642857Y-78024819D01*
X118642857Y-78024819D02*
X118785714Y-78072438D01*
X118785714Y-78072438D02*
X118833333Y-78120057D01*
X119690476Y-78358152D02*
X119690476Y-79024819D01*
X119452381Y-77977200D02*
X119214286Y-78691485D01*
X119214286Y-78691485D02*
X119833333Y-78691485D01*
X119768687Y-60429580D02*
X119721068Y-60477200D01*
X119721068Y-60477200D02*
X119578211Y-60524819D01*
X119578211Y-60524819D02*
X119482973Y-60524819D01*
X119482973Y-60524819D02*
X119340116Y-60477200D01*
X119340116Y-60477200D02*
X119244878Y-60381961D01*
X119244878Y-60381961D02*
X119197259Y-60286723D01*
X119197259Y-60286723D02*
X119149640Y-60096247D01*
X119149640Y-60096247D02*
X119149640Y-59953390D01*
X119149640Y-59953390D02*
X119197259Y-59762914D01*
X119197259Y-59762914D02*
X119244878Y-59667676D01*
X119244878Y-59667676D02*
X119340116Y-59572438D01*
X119340116Y-59572438D02*
X119482973Y-59524819D01*
X119482973Y-59524819D02*
X119578211Y-59524819D01*
X119578211Y-59524819D02*
X119721068Y-59572438D01*
X119721068Y-59572438D02*
X119768687Y-59620057D01*
X120102021Y-59524819D02*
X120721068Y-59524819D01*
X120721068Y-59524819D02*
X120387735Y-59905771D01*
X120387735Y-59905771D02*
X120530592Y-59905771D01*
X120530592Y-59905771D02*
X120625830Y-59953390D01*
X120625830Y-59953390D02*
X120673449Y-60001009D01*
X120673449Y-60001009D02*
X120721068Y-60096247D01*
X120721068Y-60096247D02*
X120721068Y-60334342D01*
X120721068Y-60334342D02*
X120673449Y-60429580D01*
X120673449Y-60429580D02*
X120625830Y-60477200D01*
X120625830Y-60477200D02*
X120530592Y-60524819D01*
X120530592Y-60524819D02*
X120244878Y-60524819D01*
X120244878Y-60524819D02*
X120149640Y-60477200D01*
X120149640Y-60477200D02*
X120102021Y-60429580D01*
X119833333Y-85289580D02*
X119785714Y-85337200D01*
X119785714Y-85337200D02*
X119642857Y-85384819D01*
X119642857Y-85384819D02*
X119547619Y-85384819D01*
X119547619Y-85384819D02*
X119404762Y-85337200D01*
X119404762Y-85337200D02*
X119309524Y-85241961D01*
X119309524Y-85241961D02*
X119261905Y-85146723D01*
X119261905Y-85146723D02*
X119214286Y-84956247D01*
X119214286Y-84956247D02*
X119214286Y-84813390D01*
X119214286Y-84813390D02*
X119261905Y-84622914D01*
X119261905Y-84622914D02*
X119309524Y-84527676D01*
X119309524Y-84527676D02*
X119404762Y-84432438D01*
X119404762Y-84432438D02*
X119547619Y-84384819D01*
X119547619Y-84384819D02*
X119642857Y-84384819D01*
X119642857Y-84384819D02*
X119785714Y-84432438D01*
X119785714Y-84432438D02*
X119833333Y-84480057D01*
X120214286Y-84480057D02*
X120261905Y-84432438D01*
X120261905Y-84432438D02*
X120357143Y-84384819D01*
X120357143Y-84384819D02*
X120595238Y-84384819D01*
X120595238Y-84384819D02*
X120690476Y-84432438D01*
X120690476Y-84432438D02*
X120738095Y-84480057D01*
X120738095Y-84480057D02*
X120785714Y-84575295D01*
X120785714Y-84575295D02*
X120785714Y-84670533D01*
X120785714Y-84670533D02*
X120738095Y-84813390D01*
X120738095Y-84813390D02*
X120166667Y-85384819D01*
X120166667Y-85384819D02*
X120785714Y-85384819D01*
X120864934Y-43441666D02*
X120912554Y-43489285D01*
X120912554Y-43489285D02*
X120960173Y-43632142D01*
X120960173Y-43632142D02*
X120960173Y-43727380D01*
X120960173Y-43727380D02*
X120912554Y-43870237D01*
X120912554Y-43870237D02*
X120817315Y-43965475D01*
X120817315Y-43965475D02*
X120722077Y-44013094D01*
X120722077Y-44013094D02*
X120531601Y-44060713D01*
X120531601Y-44060713D02*
X120388744Y-44060713D01*
X120388744Y-44060713D02*
X120198268Y-44013094D01*
X120198268Y-44013094D02*
X120103030Y-43965475D01*
X120103030Y-43965475D02*
X120007792Y-43870237D01*
X120007792Y-43870237D02*
X119960173Y-43727380D01*
X119960173Y-43727380D02*
X119960173Y-43632142D01*
X119960173Y-43632142D02*
X120007792Y-43489285D01*
X120007792Y-43489285D02*
X120055411Y-43441666D01*
X120960173Y-42489285D02*
X120960173Y-43060713D01*
X120960173Y-42774999D02*
X119960173Y-42774999D01*
X119960173Y-42774999D02*
X120103030Y-42870237D01*
X120103030Y-42870237D02*
X120198268Y-42965475D01*
X120198268Y-42965475D02*
X120245887Y-43060713D01*
X116531009Y-73785714D02*
X116578628Y-73642857D01*
X116578628Y-73642857D02*
X116626247Y-73595238D01*
X116626247Y-73595238D02*
X116721485Y-73547619D01*
X116721485Y-73547619D02*
X116864342Y-73547619D01*
X116864342Y-73547619D02*
X116959580Y-73595238D01*
X116959580Y-73595238D02*
X117007200Y-73642857D01*
X117007200Y-73642857D02*
X117054819Y-73738095D01*
X117054819Y-73738095D02*
X117054819Y-74119047D01*
X117054819Y-74119047D02*
X116054819Y-74119047D01*
X116054819Y-74119047D02*
X116054819Y-73785714D01*
X116054819Y-73785714D02*
X116102438Y-73690476D01*
X116102438Y-73690476D02*
X116150057Y-73642857D01*
X116150057Y-73642857D02*
X116245295Y-73595238D01*
X116245295Y-73595238D02*
X116340533Y-73595238D01*
X116340533Y-73595238D02*
X116435771Y-73642857D01*
X116435771Y-73642857D02*
X116483390Y-73690476D01*
X116483390Y-73690476D02*
X116531009Y-73785714D01*
X116531009Y-73785714D02*
X116531009Y-74119047D01*
X116054819Y-73261904D02*
X116054819Y-72690476D01*
X117054819Y-72976190D02*
X116054819Y-72976190D01*
X117054819Y-71833333D02*
X117054819Y-72404761D01*
X117054819Y-72119047D02*
X116054819Y-72119047D01*
X116054819Y-72119047D02*
X116197676Y-72214285D01*
X116197676Y-72214285D02*
X116292914Y-72309523D01*
X116292914Y-72309523D02*
X116340533Y-72404761D01*
D11*
%TO.C,U1*%
X117100000Y-101865000D02*
X117100000Y-101640000D01*
X117100000Y-105700000D02*
X117100000Y-105175000D01*
X117100000Y-105700000D02*
X117625000Y-105700000D01*
X117625000Y-101400000D02*
X117400000Y-101400000D01*
X121400000Y-101400000D02*
X120875000Y-101400000D01*
X121400000Y-101400000D02*
X121400000Y-101925000D01*
X121400000Y-105700000D02*
X120875000Y-105700000D01*
X121400000Y-105700000D02*
X121400000Y-105175000D01*
X117100000Y-101400000D02*
X116860000Y-101070000D01*
X117340000Y-101070000D01*
X117100000Y-101400000D01*
G36*
X117100000Y-101400000D02*
G01*
X116860000Y-101070000D01*
X117340000Y-101070000D01*
X117100000Y-101400000D01*
G37*
%TO.C,SW2*%
X114945354Y-58221000D02*
X113825354Y-58221000D01*
X118045354Y-58221000D02*
X116925354Y-58221000D01*
X115300354Y-56620000D02*
X116570354Y-56620000D01*
X116570354Y-56620000D02*
X116570354Y-53000000D01*
X116570354Y-54206667D02*
X115300354Y-54206667D01*
X115300354Y-53000000D02*
X115300354Y-56620000D01*
X115370354Y-53000000D02*
X115370354Y-54206667D01*
X115490354Y-53000000D02*
X115490354Y-54206667D01*
X115610354Y-53000000D02*
X115610354Y-54206667D01*
X115730354Y-53000000D02*
X115730354Y-54206667D01*
X115850354Y-53000000D02*
X115850354Y-54206667D01*
X115970354Y-53000000D02*
X115970354Y-54206667D01*
X116090354Y-53000000D02*
X116090354Y-54206667D01*
X116210354Y-53000000D02*
X116210354Y-54206667D01*
X116330354Y-53000000D02*
X116330354Y-54206667D01*
X116450354Y-53000000D02*
X116450354Y-54206667D01*
X116570354Y-53000000D02*
X115300354Y-53000000D01*
X113825354Y-51400000D02*
X113825354Y-58221000D01*
X114895354Y-51400000D02*
X113825354Y-51400000D01*
X118045354Y-51400000D02*
X118045354Y-58221000D01*
X118045354Y-51400000D02*
X116975354Y-51400000D01*
X118285354Y-51160000D02*
X118285354Y-52543000D01*
X118285354Y-51160000D02*
X116975354Y-51160000D01*
%TO.C,SW1*%
X122000000Y-130250000D02*
X122000000Y-128750000D01*
X120750000Y-126250000D02*
X116250000Y-126250000D01*
X116250000Y-132750000D02*
X120750000Y-132750000D01*
X115000000Y-128750000D02*
X115000000Y-130250000D01*
%TO.C,R5*%
X118412854Y-40237258D02*
X118412854Y-39762742D01*
X119457854Y-40237258D02*
X119457854Y-39762742D01*
%TO.C,R4*%
X117737258Y-90522500D02*
X117262742Y-90522500D01*
X117737258Y-89477500D02*
X117262742Y-89477500D01*
%TO.C,R3*%
X119237258Y-87022500D02*
X118762742Y-87022500D01*
X119237258Y-85977500D02*
X118762742Y-85977500D01*
%TO.C,R2*%
X117562258Y-93477500D02*
X117087742Y-93477500D01*
X117562258Y-94522500D02*
X117087742Y-94522500D01*
%TO.C,R1*%
X117562258Y-95477500D02*
X117087742Y-95477500D01*
X117562258Y-96522500D02*
X117087742Y-96522500D01*
%TO.C,Q1*%
X115800000Y-119000000D02*
X115800000Y-116000000D01*
X119200000Y-119000000D02*
X119200000Y-116000000D01*
X116451039Y-120337790D02*
G75*
G02*
X115800000Y-119000000I1048957J1337788D01*
G01*
X119200000Y-119000000D02*
G75*
G02*
X118548961Y-120337790I-1700000J0D01*
G01*
X115800000Y-116000000D02*
G75*
G02*
X116451039Y-114662210I1700000J0D01*
G01*
X118548961Y-114662210D02*
G75*
G02*
X119200000Y-116000000I-1048961J-1337790D01*
G01*
%TO.C,M1*%
X118805000Y-108315000D02*
X119500000Y-108315000D01*
X118805000Y-109000000D02*
X118805000Y-108315000D01*
X118805000Y-109685000D02*
X118805000Y-110560000D01*
X118805000Y-109685000D02*
X118891724Y-109685000D01*
X118805000Y-110560000D02*
X119105507Y-110560000D01*
X119894493Y-110560000D02*
X120195000Y-110560000D01*
X120108276Y-109685000D02*
X120195000Y-109685000D01*
X120195000Y-109685000D02*
X120195000Y-110560000D01*
%TO.C,J8*%
X115305000Y-44315000D02*
X116000000Y-44315000D01*
X115305000Y-45000000D02*
X115305000Y-44315000D01*
X115305000Y-45685000D02*
X115305000Y-45560000D01*
X115305000Y-45685000D02*
X115391724Y-45685000D01*
X115305000Y-45685000D02*
X116695000Y-45685000D01*
X116608276Y-45685000D02*
X116695000Y-45685000D01*
X116695000Y-45685000D02*
X116695000Y-45560000D01*
%TO.C,J7*%
X115305000Y-42315000D02*
X116000000Y-42315000D01*
X115305000Y-43000000D02*
X115305000Y-42315000D01*
X115305000Y-43685000D02*
X115305000Y-43560000D01*
X115305000Y-43685000D02*
X115391724Y-43685000D01*
X115305000Y-43685000D02*
X116695000Y-43685000D01*
X116608276Y-43685000D02*
X116695000Y-43685000D01*
X116695000Y-43685000D02*
X116695000Y-43560000D01*
%TO.C,J6*%
X119240354Y-50815000D02*
X119935354Y-50815000D01*
X119240354Y-51500000D02*
X119240354Y-50815000D01*
X119240354Y-52185000D02*
X119240354Y-52060000D01*
X119240354Y-52185000D02*
X119327078Y-52185000D01*
X119240354Y-52185000D02*
X120630354Y-52185000D01*
X120543630Y-52185000D02*
X120630354Y-52185000D01*
X120630354Y-52185000D02*
X120630354Y-52060000D01*
%TO.C,J5*%
X119240354Y-48815000D02*
X119935354Y-48815000D01*
X119240354Y-49500000D02*
X119240354Y-48815000D01*
X119240354Y-50185000D02*
X119240354Y-50060000D01*
X119240354Y-50185000D02*
X119327078Y-50185000D01*
X119240354Y-50185000D02*
X120630354Y-50185000D01*
X120543630Y-50185000D02*
X120630354Y-50185000D01*
X120630354Y-50185000D02*
X120630354Y-50060000D01*
%TO.C,J4*%
X119240354Y-46815000D02*
X119935354Y-46815000D01*
X119240354Y-47500000D02*
X119240354Y-46815000D01*
X119240354Y-48185000D02*
X119240354Y-48060000D01*
X119240354Y-48185000D02*
X119327078Y-48185000D01*
X119240354Y-48185000D02*
X120630354Y-48185000D01*
X120543630Y-48185000D02*
X120630354Y-48185000D01*
X120630354Y-48185000D02*
X120630354Y-48060000D01*
%TO.C,J3*%
X120630354Y-46185000D02*
X120630354Y-46060000D01*
X120543630Y-46185000D02*
X120630354Y-46185000D01*
X119240354Y-46185000D02*
X120630354Y-46185000D01*
X119240354Y-46185000D02*
X119327078Y-46185000D01*
X119240354Y-46185000D02*
X119240354Y-46060000D01*
X119240354Y-45500000D02*
X119240354Y-44815000D01*
X119240354Y-44815000D02*
X119935354Y-44815000D01*
%TO.C,J2*%
X120630354Y-56185000D02*
X120630354Y-56060000D01*
X120543630Y-56185000D02*
X120630354Y-56185000D01*
X119240354Y-56185000D02*
X120630354Y-56185000D01*
X119240354Y-56185000D02*
X119327078Y-56185000D01*
X119240354Y-56185000D02*
X119240354Y-56060000D01*
X119240354Y-55500000D02*
X119240354Y-54815000D01*
X119240354Y-54815000D02*
X119935354Y-54815000D01*
%TO.C,J1*%
X119240354Y-52815000D02*
X119935354Y-52815000D01*
X119240354Y-53500000D02*
X119240354Y-52815000D01*
X119240354Y-54185000D02*
X119240354Y-54060000D01*
X119240354Y-54185000D02*
X119327078Y-54185000D01*
X119240354Y-54185000D02*
X120630354Y-54185000D01*
X120543630Y-54185000D02*
X120630354Y-54185000D01*
X120630354Y-54185000D02*
X120630354Y-54060000D01*
%TO.C,FSR1*%
X121240354Y-39815000D02*
X121240354Y-38940000D01*
X121327078Y-39815000D02*
X121240354Y-39815000D01*
X121540861Y-38940000D02*
X121240354Y-38940000D01*
X122630354Y-38940000D02*
X122329847Y-38940000D01*
X122630354Y-39815000D02*
X122543630Y-39815000D01*
X122630354Y-39815000D02*
X122630354Y-38940000D01*
X122630354Y-40500000D02*
X122630354Y-41185000D01*
X122630354Y-41185000D02*
X121935354Y-41185000D01*
%TO.C,D1*%
X117145354Y-34764000D02*
X117145354Y-34920000D01*
X117145354Y-37080000D02*
X117145354Y-37236000D01*
X117145354Y-34764484D02*
G75*
G02*
X120376751Y-34919939I1560000J-1235516D01*
G01*
X117664393Y-34920000D02*
G75*
G02*
X119746264Y-34919951I1040961J-1080000D01*
G01*
X119746264Y-37080049D02*
G75*
G02*
X117664393Y-37080000I-1040910J1080049D01*
G01*
X120376751Y-37080061D02*
G75*
G02*
X117145354Y-37235516I-1671397J1080061D01*
G01*
%TO.C,C4*%
X118859420Y-79490000D02*
X119140580Y-79490000D01*
X118859420Y-80510000D02*
X119140580Y-80510000D01*
%TO.C,C3*%
X119794774Y-60990000D02*
X120075934Y-60990000D01*
X119794774Y-62010000D02*
X120075934Y-62010000D01*
%TO.C,C2*%
X120140580Y-84010000D02*
X119859420Y-84010000D01*
X120140580Y-82990000D02*
X119859420Y-82990000D01*
%TO.C,C1*%
X121425354Y-43415580D02*
X121425354Y-43134420D01*
X122445354Y-43415580D02*
X122445354Y-43134420D01*
%TO.C,BT1*%
X117390000Y-76360000D02*
X118640000Y-76360000D01*
X117690000Y-76060000D02*
X122410000Y-76060000D01*
X119000000Y-76060000D02*
X119000000Y-75450000D01*
X120300000Y-76060000D02*
X120300000Y-75450000D01*
X122410000Y-76060000D02*
X122410000Y-69940000D01*
X118300000Y-75450000D02*
X121800000Y-75450000D01*
X121800000Y-75450000D02*
X121800000Y-70550000D01*
X117390000Y-75110000D02*
X117390000Y-76360000D01*
X117490000Y-74600000D02*
X117690000Y-74600000D01*
X117490000Y-74300000D02*
X117490000Y-74600000D01*
X117590000Y-74300000D02*
X117590000Y-74600000D01*
X117690000Y-74300000D02*
X117490000Y-74300000D01*
X117690000Y-73500000D02*
X118300000Y-73500000D01*
X118300000Y-73500000D02*
X118300000Y-75450000D01*
X121300000Y-73100000D02*
X121300000Y-72900000D01*
X121800000Y-73100000D02*
X121300000Y-73100000D01*
X121800000Y-73000000D02*
X121300000Y-73000000D01*
X121300000Y-72900000D02*
X121800000Y-72900000D01*
X118300000Y-72500000D02*
X117690000Y-72500000D01*
X118300000Y-70550000D02*
X118300000Y-72500000D01*
X121800000Y-70550000D02*
X118300000Y-70550000D01*
X117690000Y-69940000D02*
X117690000Y-76060000D01*
X119000000Y-69940000D02*
X119000000Y-70550000D01*
X120300000Y-69940000D02*
X120300000Y-70550000D01*
X122410000Y-69940000D02*
X117690000Y-69940000D01*
%TD*%
M02*
