M48
; DRILL file {KiCad 8.0.8} date 2025-02-10T07:33:47-0800
; FORMAT={-:-/ absolute / inch / decimal}
; #@! TF.CreationDate,2025-02-10T07:33:47-08:00
; #@! TF.GenerationSoftware,Kicad,Pcbnew,8.0.8
; #@! TF.FileFunction,Plated,1,2,PTH
FMAT,2
INCH
; #@! TA.AperFunction,Plated,PTH,ComponentDrill
T1C0.0197
; #@! TA.AperFunction,Plated,PTH,ComponentDrill
T2C0.0295
; #@! TA.AperFunction,Plated,PTH,ComponentDrill
T3C0.0315
; #@! TA.AperFunction,Plated,PTH,ComponentDrill
T4C0.0354
; #@! TA.AperFunction,Plated,PTH,ComponentDrill
T5C0.0394
; #@! TA.AperFunction,Plated,PTH,ComponentDrill
T6C0.0433
%
G90
G05
T1
X6.0433Y-1.1811
X6.0433Y-1.2205
X6.1024Y-3.4646
X6.1024Y-3.5039
X6.1417Y-1.1811
X6.1417Y-1.2205
X6.1417Y-1.2598
X6.1417Y-1.2992
X6.1417Y-1.3386
X6.1417Y-1.378
X6.2402Y-1.1614
X6.2402Y-1.2008
T2
X6.1791Y-1.6535
X6.1791Y-1.7323
T3
X6.0236Y-1.2874
X6.0236Y-1.5874
T4
X6.0917Y-0.9055
X6.1917Y-0.9055
T5
X6.0433Y-3.878
X6.0433Y-3.9764
X6.0433Y-4.0748
T6
X5.9744Y-4.3209
X5.9744Y-4.498
X6.2303Y-4.3209
X6.2303Y-4.498
M30
